<svg xmlns="http://www.w3.org/2000/svg" width="1382" height="538" viewBox="0 0 1382 538" font-family="DejaVu Sans Mono, Noto Color Emoji, monospace" font-size="15">
<rect width="100%" height="100%" rx="10" fill="#1a1b26"/>
<rect x="0.5" y="0.5" width="1382" height="537" rx="10" fill="none" stroke="#3b4261"/>
<circle cx="20" cy="13" r="5" fill="#f7768e"/>
<circle cx="36" cy="13" r="5" fill="#e0af68"/>
<circle cx="52" cy="13" r="5" fill="#9ece6a"/>
<text x="691" y="17" fill="#565f89" text-anchor="middle">arch — библиотека скиллов</text>
<line x1="0" y1="26" x2="1382" y2="26" stroke="#3b4261"/>
<rect x="14.0" y="29.0" width="9.0" height="19" fill="#1a1b26"/><text x="14.0" y="43.8" xml:space="preserve" fill="#565f89">╭</text><rect x="23.0" y="29.0" width="72.2" height="19" fill="#1a1b26"/><text x="23.0" y="43.8" xml:space="preserve" fill="#7dcfff" font-weight="700"> Диалог</text><rect x="95.3" y="29.0" width="975.2" height="19" fill="#1a1b26"/><text x="95.3" y="43.8" xml:space="preserve" fill="#565f89">──────────────────────────────────────────────────────────────────────────────────────────────────────────╮╭</text><rect x="1070.5" y="29.0" width="99.3" height="19" fill="#7dcfff"/><text x="1070.5" y="43.8" xml:space="preserve" fill="#1a1b26" font-weight="700"> ◇ Mermaid</text><rect x="1169.8" y="29.0" width="198.7" height="19" fill="#1a1b26"/><text x="1169.8" y="43.8" xml:space="preserve" fill="#565f89"> ✓ Рубрика  ◈ Знания ╮</text><rect x="14.0" y="48.0" width="9.0" height="19" fill="#1a1b26"/><text x="14.0" y="62.8" xml:space="preserve" fill="#565f89">│</text><rect x="23.0" y="48.0" width="36.1" height="19" fill="#1a1b26"/><text x="23.0" y="62.8" xml:space="preserve" fill="#7dcfff" font-weight="700">● вы</text><rect x="59.1" y="48.0" width="993.3" height="19" fill="#1a1b26"/><rect x="1052.4" y="48.0" width="261.9" height="19" fill="#1a1b26"/><text x="1052.4" y="62.8" xml:space="preserve" fill="#565f89">││Пока пусто. Здесь появится</text><rect x="1314.3" y="48.0" width="45.1" height="19" fill="#1a1b26"/><rect x="1359.5" y="48.0" width="9.0" height="19" fill="#1a1b26"/><text x="1359.5" y="62.8" xml:space="preserve" fill="#565f89">│</text><rect x="14.0" y="67.0" width="9.0" height="19" fill="#1a1b26"/><text x="14.0" y="81.8" xml:space="preserve" fill="#565f89">│</text><rect x="23.0" y="67.0" width="18.1" height="19" fill="#1a1b26"/><text x="23.0" y="81.8" xml:space="preserve" fill="#7dcfff">▎</text><rect x="41.1" y="67.0" width="1011.4" height="19" fill="#1a1b26"/><text x="41.1" y="81.8" xml:space="preserve" fill="#c0caf5">подбери методики надёжной интеграции и собери контур гейтов</text><rect x="1052.4" y="67.0" width="261.9" height="19" fill="#1a1b26"/><text x="1052.4" y="81.8" xml:space="preserve" fill="#565f89">││последний рендер диаграммы</text><rect x="1314.3" y="67.0" width="45.1" height="19" fill="#1a1b26"/><rect x="1359.5" y="67.0" width="9.0" height="19" fill="#1a1b26"/><text x="1359.5" y="81.8" xml:space="preserve" fill="#565f89">│</text><rect x="14.0" y="86.0" width="9.0" height="19" fill="#1a1b26"/><text x="14.0" y="100.8" xml:space="preserve" fill="#565f89">│</text><rect x="23.0" y="86.0" width="1029.4" height="19" fill="#1a1b26"/><rect x="1052.4" y="86.0" width="298.0" height="19" fill="#1a1b26"/><text x="1052.4" y="100.8" xml:space="preserve" fill="#565f89">││(инструмент mermaid_render или</text><rect x="1350.4" y="86.0" width="9.0" height="19" fill="#1a1b26"/><rect x="1359.5" y="86.0" width="9.0" height="19" fill="#1a1b26"/><text x="1359.5" y="100.8" xml:space="preserve" fill="#565f89">│</text><rect x="14.0" y="105.0" width="9.0" height="19" fill="#1a1b26"/><text x="14.0" y="119.8" xml:space="preserve" fill="#565f89">│</text><rect x="23.0" y="105.0" width="18.1" height="19" fill="#1a1b26"/><text x="23.0" y="119.8" xml:space="preserve" fill="#9ece6a">✓</text><rect x="41.1" y="105.0" width="108.4" height="19" fill="#1a1b26"/><text x="41.1" y="119.8" xml:space="preserve" fill="#9ece6a" font-weight="700">skill_search</text><rect x="149.4" y="105.0" width="433.4" height="19" fill="#1a1b26"/><text x="149.4" y="119.8" xml:space="preserve" fill="#565f89"> «надёжная интеграция: события, доставка, гейты»</text><rect x="582.9" y="105.0" width="469.6" height="19" fill="#1a1b26"/><rect x="1052.4" y="105.0" width="108.4" height="19" fill="#1a1b26"/><text x="1052.4" y="119.8" xml:space="preserve" fill="#565f89">││/mermaid).</text><rect x="1160.8" y="105.0" width="198.7" height="19" fill="#1a1b26"/><rect x="1359.5" y="105.0" width="9.0" height="19" fill="#1a1b26"/><text x="1359.5" y="119.8" xml:space="preserve" fill="#565f89">│</text><rect x="14.0" y="124.0" width="9.0" height="19" fill="#1a1b26"/><text x="14.0" y="138.8" xml:space="preserve" fill="#565f89">│</text><rect x="23.0" y="124.0" width="18.1" height="19" fill="#1a1b26"/><text x="23.0" y="138.8" xml:space="preserve" fill="#9ece6a">✓</text><rect x="41.1" y="124.0" width="90.3" height="19" fill="#1a1b26"/><text x="41.1" y="138.8" xml:space="preserve" fill="#9ece6a" font-weight="700">skill_load</text><rect x="131.4" y="124.0" width="189.6" height="19" fill="#1a1b26"/><text x="131.4" y="138.8" xml:space="preserve" fill="#565f89"> transactional-outbox</text><rect x="321.0" y="124.0" width="731.4" height="19" fill="#1a1b26"/><rect x="1052.4" y="124.0" width="18.1" height="19" fill="#1a1b26"/><text x="1052.4" y="138.8" xml:space="preserve" fill="#565f89">││</text><rect x="1070.5" y="124.0" width="289.0" height="19" fill="#1a1b26"/><rect x="1359.5" y="124.0" width="9.0" height="19" fill="#1a1b26"/><text x="1359.5" y="138.8" xml:space="preserve" fill="#565f89">│</text><rect x="14.0" y="143.0" width="9.0" height="19" fill="#1a1b26"/><text x="14.0" y="157.8" xml:space="preserve" fill="#565f89">│</text><rect x="23.0" y="143.0" width="18.1" height="19" fill="#1a1b26"/><text x="23.0" y="157.8" xml:space="preserve" fill="#9ece6a">✓</text><rect x="41.1" y="143.0" width="90.3" height="19" fill="#1a1b26"/><text x="41.1" y="157.8" xml:space="preserve" fill="#9ece6a" font-weight="700">skill_load</text><rect x="131.4" y="143.0" width="162.5" height="19" fill="#1a1b26"/><text x="131.4" y="157.8" xml:space="preserve" fill="#565f89"> fitness-functions</text><rect x="293.9" y="143.0" width="758.5" height="19" fill="#1a1b26"/><rect x="1052.4" y="143.0" width="18.1" height="19" fill="#1a1b26"/><text x="1052.4" y="157.8" xml:space="preserve" fill="#565f89">││</text><rect x="1070.5" y="143.0" width="289.0" height="19" fill="#1a1b26"/><rect x="1359.5" y="143.0" width="9.0" height="19" fill="#1a1b26"/><text x="1359.5" y="157.8" xml:space="preserve" fill="#565f89">│</text><rect x="14.0" y="162.0" width="469.6" height="19" fill="#1a1b26"/><text x="14.0" y="176.8" xml:space="preserve" fill="#565f89">│  fitness-functions [arch-core] — скилл в контексте</text><rect x="483.6" y="162.0" width="568.9" height="19" fill="#1a1b26"/><rect x="1052.4" y="162.0" width="18.1" height="19" fill="#1a1b26"/><text x="1052.4" y="176.8" xml:space="preserve" fill="#565f89">││</text><rect x="1070.5" y="162.0" width="289.0" height="19" fill="#1a1b26"/><rect x="1359.5" y="162.0" width="9.0" height="19" fill="#1a1b26"/><text x="1359.5" y="176.8" xml:space="preserve" fill="#565f89">│</text><rect x="14.0" y="181.0" width="9.0" height="19" fill="#1a1b26"/><text x="14.0" y="195.8" xml:space="preserve" fill="#565f89">│</text><rect x="23.0" y="181.0" width="1029.4" height="19" fill="#1a1b26"/><rect x="1052.4" y="181.0" width="18.1" height="19" fill="#1a1b26"/><text x="1052.4" y="195.8" xml:space="preserve" fill="#565f89">││</text><rect x="1070.5" y="181.0" width="289.0" height="19" fill="#1a1b26"/><rect x="1359.5" y="181.0" width="9.0" height="19" fill="#1a1b26"/><text x="1359.5" y="195.8" xml:space="preserve" fill="#565f89">│</text><rect x="14.0" y="200.0" width="9.0" height="19" fill="#1a1b26"/><text x="14.0" y="214.8" xml:space="preserve" fill="#565f89">│</text><rect x="23.0" y="200.0" width="45.1" height="19" fill="#1a1b26"/><text x="23.0" y="214.8" xml:space="preserve" fill="#bb9af7" font-weight="700">◆ арх</text><rect x="68.2" y="200.0" width="984.3" height="19" fill="#1a1b26"/><rect x="1052.4" y="200.0" width="18.1" height="19" fill="#1a1b26"/><text x="1052.4" y="214.8" xml:space="preserve" fill="#565f89">││</text><rect x="1070.5" y="200.0" width="289.0" height="19" fill="#1a1b26"/><rect x="1359.5" y="200.0" width="9.0" height="19" fill="#1a1b26"/><text x="1359.5" y="214.8" xml:space="preserve" fill="#565f89">│</text><rect x="14.0" y="219.0" width="9.0" height="19" fill="#1a1b26"/><text x="14.0" y="233.8" xml:space="preserve" fill="#565f89">│</text><rect x="23.0" y="219.0" width="252.8" height="19" fill="#1a1b26"/><text x="23.0" y="233.8" xml:space="preserve" fill="#7dcfff" font-weight="700">План по методикам библиотеки</text><rect x="275.9" y="219.0" width="776.6" height="19" fill="#1a1b26"/><rect x="1052.4" y="219.0" width="18.1" height="19" fill="#1a1b26"/><text x="1052.4" y="233.8" xml:space="preserve" fill="#565f89">││</text><rect x="1070.5" y="219.0" width="289.0" height="19" fill="#1a1b26"/><rect x="1359.5" y="219.0" width="9.0" height="19" fill="#1a1b26"/><text x="1359.5" y="233.8" xml:space="preserve" fill="#565f89">│</text><rect x="14.0" y="238.0" width="9.0" height="19" fill="#1a1b26"/><text x="14.0" y="252.8" xml:space="preserve" fill="#565f89">│</text><rect x="23.0" y="238.0" width="18.1" height="19" fill="#1a1b26"/><text x="23.0" y="252.8" xml:space="preserve" fill="#bb9af7">•</text><rect x="41.1" y="238.0" width="54.2" height="19" fill="#1a1b26"/><text x="41.1" y="252.8" xml:space="preserve" fill="#c0caf5" font-weight="700">Outbox</text><rect x="95.3" y="238.0" width="957.2" height="19" fill="#1a1b26"/><text x="95.3" y="252.8" xml:space="preserve" fill="#c0caf5"> (transactional-outbox): событие пишется с сущностью в одной транзакции</text><rect x="1052.4" y="238.0" width="18.1" height="19" fill="#1a1b26"/><text x="1052.4" y="252.8" xml:space="preserve" fill="#565f89">││</text><rect x="1070.5" y="238.0" width="289.0" height="19" fill="#1a1b26"/><rect x="1359.5" y="238.0" width="9.0" height="19" fill="#1a1b26"/><text x="1359.5" y="252.8" xml:space="preserve" fill="#565f89">│</text><rect x="14.0" y="257.0" width="9.0" height="19" fill="#1a1b26"/><text x="14.0" y="271.8" xml:space="preserve" fill="#565f89">│</text><rect x="23.0" y="257.0" width="18.1" height="19" fill="#1a1b26"/><text x="23.0" y="271.8" xml:space="preserve" fill="#bb9af7">•</text><rect x="41.1" y="257.0" width="99.3" height="19" fill="#1a1b26"/><text x="41.1" y="271.8" xml:space="preserve" fill="#c0caf5" font-weight="700">Потребитель</text><rect x="140.4" y="257.0" width="912.0" height="19" fill="#1a1b26"/><text x="140.4" y="271.8" xml:space="preserve" fill="#c0caf5"> идемпотентный (idempotent-consumer) — at-least-once без дублей</text><rect x="1052.4" y="257.0" width="18.1" height="19" fill="#1a1b26"/><text x="1052.4" y="271.8" xml:space="preserve" fill="#565f89">││</text><rect x="1070.5" y="257.0" width="289.0" height="19" fill="#1a1b26"/><rect x="1359.5" y="257.0" width="9.0" height="19" fill="#1a1b26"/><text x="1359.5" y="271.8" xml:space="preserve" fill="#565f89">│</text><rect x="14.0" y="276.0" width="9.0" height="19" fill="#1a1b26"/><text x="14.0" y="290.8" xml:space="preserve" fill="#565f89">│</text><rect x="23.0" y="276.0" width="18.1" height="19" fill="#1a1b26"/><text x="23.0" y="290.8" xml:space="preserve" fill="#bb9af7">•</text><rect x="41.1" y="276.0" width="162.5" height="19" fill="#1a1b26"/><text x="41.1" y="290.8" xml:space="preserve" fill="#c0caf5" font-weight="700">Fitness-гейты в CI</text><rect x="203.6" y="276.0" width="848.8" height="19" fill="#1a1b26"/><text x="203.6" y="290.8" xml:space="preserve" fill="#c0caf5"> (fitness-functions): ретраи с джиттером, запрет float в деньгах</text><rect x="1052.4" y="276.0" width="18.1" height="19" fill="#1a1b26"/><text x="1052.4" y="290.8" xml:space="preserve" fill="#565f89">││</text><rect x="1070.5" y="276.0" width="289.0" height="19" fill="#1a1b26"/><rect x="1359.5" y="276.0" width="9.0" height="19" fill="#1a1b26"/><text x="1359.5" y="290.8" xml:space="preserve" fill="#565f89">│</text><rect x="14.0" y="295.0" width="9.0" height="19" fill="#1a1b26"/><text x="14.0" y="309.8" xml:space="preserve" fill="#565f89">│</text><rect x="23.0" y="295.0" width="18.1" height="19" fill="#1a1b26"/><text x="23.0" y="309.8" xml:space="preserve" fill="#bb9af7">•</text><rect x="41.1" y="295.0" width="1011.4" height="19" fill="#1a1b26"/><text x="41.1" y="309.8" xml:space="preserve" fill="#c0caf5">Критерии приёмки зафиксированы в ADR-003</text><rect x="1052.4" y="295.0" width="18.1" height="19" fill="#1a1b26"/><text x="1052.4" y="309.8" xml:space="preserve" fill="#565f89">││</text><rect x="1070.5" y="295.0" width="289.0" height="19" fill="#1a1b26"/><rect x="1359.5" y="295.0" width="9.0" height="19" fill="#1a1b26"/><text x="1359.5" y="309.8" xml:space="preserve" fill="#565f89">│</text><rect x="14.0" y="314.0" width="9.0" height="19" fill="#1a1b26"/><text x="14.0" y="328.8" xml:space="preserve" fill="#565f89">│</text><rect x="23.0" y="314.0" width="1029.4" height="19" fill="#1a1b26"/><rect x="1052.4" y="314.0" width="18.1" height="19" fill="#1a1b26"/><text x="1052.4" y="328.8" xml:space="preserve" fill="#565f89">││</text><rect x="1070.5" y="314.0" width="289.0" height="19" fill="#1a1b26"/><rect x="1359.5" y="314.0" width="9.0" height="19" fill="#1a1b26"/><text x="1359.5" y="328.8" xml:space="preserve" fill="#565f89">│</text><rect x="14.0" y="333.0" width="9.0" height="19" fill="#1a1b26"/><text x="14.0" y="347.8" xml:space="preserve" fill="#565f89">│</text><rect x="23.0" y="333.0" width="18.1" height="19" fill="#1a1b26"/><text x="23.0" y="347.8" xml:space="preserve" fill="#9ece6a">✓</text><rect x="41.1" y="333.0" width="63.2" height="19" fill="#1a1b26"/><text x="41.1" y="347.8" xml:space="preserve" fill="#9ece6a" font-weight="700">adr_new</text><rect x="104.3" y="333.0" width="948.1" height="19" fill="#1a1b26"/><rect x="1052.4" y="333.0" width="18.1" height="19" fill="#1a1b26"/><text x="1052.4" y="347.8" xml:space="preserve" fill="#565f89">││</text><rect x="1070.5" y="333.0" width="289.0" height="19" fill="#1a1b26"/><rect x="1359.5" y="333.0" width="9.0" height="19" fill="#1a1b26"/><text x="1359.5" y="347.8" xml:space="preserve" fill="#565f89">│</text><rect x="14.0" y="352.0" width="406.3" height="19" fill="#1a1b26"/><text x="14.0" y="366.8" xml:space="preserve" fill="#565f89">│  ADR-003 создан: docs/adr/ADR-003-outbox.md</text><rect x="420.3" y="352.0" width="632.1" height="19" fill="#1a1b26"/><rect x="1052.4" y="352.0" width="18.1" height="19" fill="#1a1b26"/><text x="1052.4" y="366.8" xml:space="preserve" fill="#565f89">││</text><rect x="1070.5" y="352.0" width="289.0" height="19" fill="#1a1b26"/><rect x="1359.5" y="352.0" width="9.0" height="19" fill="#1a1b26"/><text x="1359.5" y="366.8" xml:space="preserve" fill="#565f89">│</text><rect x="14.0" y="371.0" width="9.0" height="19" fill="#1a1b26"/><text x="14.0" y="385.8" xml:space="preserve" fill="#565f89">│</text><rect x="23.0" y="371.0" width="1029.4" height="19" fill="#1a1b26"/><rect x="1052.4" y="371.0" width="18.1" height="19" fill="#1a1b26"/><text x="1052.4" y="385.8" xml:space="preserve" fill="#565f89">││</text><rect x="1070.5" y="371.0" width="289.0" height="19" fill="#1a1b26"/><rect x="1359.5" y="371.0" width="9.0" height="19" fill="#1a1b26"/><text x="1359.5" y="385.8" xml:space="preserve" fill="#565f89">│</text><rect x="14.0" y="390.0" width="9.0" height="19" fill="#1a1b26"/><text x="14.0" y="404.8" xml:space="preserve" fill="#565f89">│</text><rect x="23.0" y="390.0" width="1029.4" height="19" fill="#1a1b26"/><rect x="1052.4" y="390.0" width="18.1" height="19" fill="#1a1b26"/><text x="1052.4" y="404.8" xml:space="preserve" fill="#565f89">││</text><rect x="1070.5" y="390.0" width="289.0" height="19" fill="#1a1b26"/><rect x="1359.5" y="390.0" width="9.0" height="19" fill="#1a1b26"/><text x="1359.5" y="404.8" xml:space="preserve" fill="#565f89">│</text><rect x="14.0" y="409.0" width="9.0" height="19" fill="#1a1b26"/><text x="14.0" y="423.8" xml:space="preserve" fill="#565f89">│</text><rect x="23.0" y="409.0" width="1029.4" height="19" fill="#1a1b26"/><rect x="1052.4" y="409.0" width="18.1" height="19" fill="#1a1b26"/><text x="1052.4" y="423.8" xml:space="preserve" fill="#565f89">││</text><rect x="1070.5" y="409.0" width="289.0" height="19" fill="#1a1b26"/><rect x="1359.5" y="409.0" width="9.0" height="19" fill="#1a1b26"/><text x="1359.5" y="423.8" xml:space="preserve" fill="#565f89">│</text><rect x="14.0" y="428.0" width="1354.5" height="19" fill="#1a1b26"/><text x="14.0" y="442.8" xml:space="preserve" fill="#565f89">╰──────────────────────────────────────────────────────────────────────────────────────────────────────────────────╯╰────────────────────────────────╯</text><rect x="14.0" y="447.0" width="1354.5" height="19" fill="#1a1b26"/><text x="14.0" y="461.8" xml:space="preserve" fill="#7dcfff">╭────────────────────────────────────────────────────────────────────────────────────────────────────────────────────────────────────────────────────╮</text><rect x="14.0" y="466.0" width="9.0" height="19" fill="#1a1b26"/><text x="14.0" y="480.8" xml:space="preserve" fill="#7dcfff">│</text><rect x="23.0" y="466.0" width="18.1" height="19" fill="#1a1b26"/><text x="23.0" y="480.8" xml:space="preserve" fill="#7dcfff" font-weight="700">›</text><rect x="41.1" y="466.0" width="1318.4" height="19" fill="#1a1b26"/><rect x="1359.5" y="466.0" width="9.0" height="19" fill="#1a1b26"/><text x="1359.5" y="480.8" xml:space="preserve" fill="#7dcfff">│</text><rect x="14.0" y="485.0" width="1354.5" height="19" fill="#1a1b26"/><text x="14.0" y="499.8" xml:space="preserve" fill="#7dcfff">╰────────────────────────────────────────────────────────────────────────────────────────────────────────────────────────────────────────────────────╯</text><rect x="14.0" y="504.0" width="252.8" height="19" fill="#7dcfff"/><text x="14.0" y="518.8" xml:space="preserve" fill="#1a1b26" font-weight="700"> deepseek:deepseek-v4-flash</text><rect x="266.8" y="504.0" width="126.4" height="19" fill="#1a1b26"/><text x="266.8" y="518.8" xml:space="preserve" fill="#565f89"> ◈ 74.8k/1.0M</text><rect x="393.3" y="504.0" width="99.3" height="19" fill="#1a1b26"/><text x="393.3" y="518.8" xml:space="preserve" fill="#9ece6a">▱▱▱▱▱▱▱▱ 7%</text><rect x="492.6" y="504.0" width="108.4" height="19" fill="#1a1b26"/><text x="492.6" y="518.8" xml:space="preserve" fill="#565f89">  /home/user</text><rect x="601.0" y="504.0" width="9.0" height="19" fill="#1a1b26"/><rect x="610.0" y="504.0" width="758.5" height="19" fill="#1a1b26"/><text x="610.0" y="518.8" xml:space="preserve" fill="#565f89">F1–F3 вкладки · F4 — на весь экран · F5 — панель · Ctrl+J — новая строка · q — выход</text></svg>
